# Blender 3.6.17
# www.blender.org
mtllib 표지판.mtl
o 표지판_v2
v -2.100000 1.100000 0.300000
v -2.100000 1.100000 -0.100000
v -2.200000 1.200000 -0.200000
v -2.200000 1.200000 0.400000
v -2.200000 -0.300000 0.400000
v -2.200000 -0.300000 -0.200000
v -2.100000 -0.200000 -0.100000
v -2.100000 -0.200000 0.300000
v -2.400000 -0.300000 -0.200000
v -2.400000 1.200000 -0.200000
v -2.400000 -0.300000 0.400000
v -2.100000 0.200000 0.200000
v -2.100000 0.800000 0.200000
v -2.100000 0.800000 -0.000000
v -2.100000 0.200000 -0.000000
v -1.700000 -0.300000 0.200000
v -1.700000 -0.100000 0.200000
v -1.700000 -0.100000 0.000000
v -1.700000 -0.300000 0.000000
v 0.800000 -0.300000 0.000000
v 0.800000 -0.300000 0.200000
v 0.800000 -0.100000 0.000000
v 0.950000 0.050000 -0.000000
v 0.950000 1.200000 -0.000000
v 1.100000 1.200000 -0.000000
v 1.100000 0.000000 0.000000
v -2.400000 1.200000 0.400000
v -1.800000 0.800000 -0.000000
v -1.800000 0.200000 -0.000000
v 0.800000 -0.100000 -0.100000
v 0.950000 0.050000 -0.100000
v -1.800000 -0.100000 -0.100000
v -1.800000 1.000000 -0.100000
v -1.500000 1.300000 -0.100000
v 0.950000 1.300000 -0.100000
v -1.800000 -0.100000 0.300000
v -1.800000 1.000000 0.300000
v -1.800000 0.800000 0.200000
v -1.800000 0.200000 0.200000
v -1.500000 1.300000 0.300000
v 0.950000 1.300000 0.300000
v 0.950000 0.050000 0.200000
v 0.950000 1.200000 0.200000
v 0.950000 0.050000 0.300000
v 0.800000 -0.100000 0.200000
v 0.800000 -0.100000 0.300000
v 1.100000 0.000000 0.200000
v 1.100000 1.200000 0.200000
vn 0.7071 0.7071 -0.0000
vn 0.7071 -0.7071 -0.0000
vn 0.7071 -0.0000 -0.7071
vn 0.7071 -0.0000 0.7071
vn -0.0000 -0.0000 -1.0000
vn -0.0000 -1.0000 -0.0000
vn 1.0000 -0.0000 -0.0000
vn -1.0000 -0.0000 -0.0000
vn -0.0000 -0.0000 1.0000
vn -0.0000 1.0000 -0.0000
vn -0.7071 0.7071 -0.0000
vt 0.355775 0.796769
vt 0.355775 0.722384
vt 0.382075 0.815366
vt 0.382075 0.703788
vt 0.382826 0.815366
vt 0.382826 0.703788
vt 0.409125 0.796769
vt 0.409125 0.722384
vt 0.000376 0.610054
vt 0.026675 0.591458
vt 0.000376 0.851807
vt 0.026675 0.870403
vt 0.027426 0.870403
vt 0.027426 0.591458
vt 0.053726 0.851807
vt 0.053726 0.610054
vt 0.778722 0.512526
vt 0.815915 0.512526
vt 0.778722 0.791471
vt 0.815915 0.791471
vt 0.355024 0.815366
vt 0.317831 0.815366
vt 0.355024 0.703788
vt 0.317831 0.703788
vt 0.110266 0.647247
vt 0.128862 0.591458
vt 0.110266 0.758825
vt 0.128862 0.833211
vt 0.054477 0.833211
vt 0.054477 0.591458
vt 0.073073 0.647247
vt 0.073073 0.758825
vt 0.816666 0.829416
vt 0.779474 0.829416
vt 0.816666 0.792223
vt 0.779474 0.792223
vt 0.553312 0.977435
vt 0.553312 0.512526
vt 0.590505 0.977435
vt 0.590505 0.512526
vt 0.477424 0.016756
vt 0.272667 0.434146
vt 0.444033 0.000376
vt 0.239276 0.417766
vt 0.264791 0.492423
vt 0.285425 0.471475
vt 0.465139 0.590707
vt 0.477424 0.565663
vt 0.853859 0.791471
vt 0.816667 0.791471
vt 0.853859 0.512526
vt 0.816667 0.512526
vt 0.373620 0.703036
vt 0.317831 0.703036
vt 0.373620 0.591458
vt 0.317831 0.591458
vt 0.447821 0.743236
vt 0.447821 0.703788
vt 0.466417 0.743236
vt 0.466417 0.703788
vt 0.478175 0.483881
vt 0.478175 0.000376
vt 0.506070 0.511775
vt 0.682735 0.000376
vt 0.738524 0.511775
vt 0.738524 0.056165
vt 0.317080 0.591458
vt 0.298484 0.647247
vt 0.242695 0.591458
vt 0.261291 0.647247
vt 0.242695 0.796018
vt 0.261291 0.758825
vt 0.298484 0.758825
vt 0.317080 0.796018
vt 0.665642 0.512526
vt 0.665642 0.968137
vt 0.591256 0.512526
vt 0.591256 0.968137
vt 0.185403 0.823912
vt 0.185403 0.610054
vt 0.203999 0.823912
vt 0.203999 0.591458
vt 0.129614 0.591458
vt 0.148210 0.610054
vt 0.129614 0.823912
vt 0.148210 0.823912
vt 0.447821 0.783436
vt 0.447821 0.743988
vt 0.466417 0.783436
vt 0.466417 0.743988
vt 0.533964 0.512526
vt 0.552561 0.512526
vt 0.533965 0.977435
vt 0.552561 0.996031
vt 0.478175 0.996031
vt 0.496772 0.977435
vt 0.478175 0.512526
vt 0.496772 0.512526
vt 0.739276 0.028270
vt 0.767170 0.000376
vt 0.739276 0.511775
vt 0.943835 0.511775
vt 0.999624 0.000376
vt 0.999624 0.455986
vt 0.000376 0.016756
vt 0.033767 0.000376
vt 0.205133 0.434146
vt 0.238524 0.417766
vt 0.213008 0.492423
vt 0.192375 0.471475
vt 0.012661 0.590707
vt 0.000376 0.565663
vt 0.374372 0.591458
vt 0.430161 0.591458
vt 0.374372 0.703036
vt 0.430161 0.703036
vt 0.409877 0.839225
vt 0.409877 0.783436
vt 0.447069 0.839225
vt 0.447069 0.783436
vt 0.777971 0.512526
vt 0.777971 0.791471
vt 0.666393 0.512526
vt 0.666393 0.791471
vt 0.430912 0.591458
vt 0.468105 0.591458
vt 0.430912 0.703036
vt 0.468105 0.703036
vt 0.741530 0.848012
vt 0.741530 0.792223
vt 0.778722 0.848012
vt 0.778722 0.792223
vt 0.740778 0.792223
vt 0.740778 0.871120
vt 0.666393 0.792223
vt 0.666393 0.871120
vt 0.475715 0.821381
vt 0.447821 0.821381
vt 0.475715 0.784188
vt 0.447821 0.784188
vt 0.204751 0.814614
vt 0.204750 0.591458
vt 0.241943 0.814614
vt 0.241943 0.591458
vt 0.409877 0.782685
vt 0.409877 0.703788
vt 0.447069 0.782685
vt 0.447069 0.703788
s 0
usemtl 강철_-_새틴.001
f 1/1/1 2/2/1 4/3/1
f 4/3/1 2/2/1 3/4/1
f 5/5/2 6/6/2 8/7/2
f 8/7/2 6/6/2 7/8/2
f 7/9/3 6/10/3 2/11/3
f 2/11/3 6/10/3 3/12/3
f 4/13/4 5/14/4 1/15/4
f 1/15/4 5/14/4 8/16/4
f 6/17/5 9/18/5 3/19/5
f 3/19/5 9/18/5 10/20/5
f 5/21/6 11/22/6 6/23/6
f 6/23/6 11/22/6 9/24/6
f 13/25/7 1/26/7 12/27/7
f 12/27/7 1/26/7 8/28/7
f 12/27/7 8/28/7 7/29/7
f 1/26/7 13/25/7 2/30/7
f 2/30/7 13/25/7 14/31/7
f 2/30/7 14/31/7 15/32/7
f 2/30/7 15/32/7 7/29/7
f 7/29/7 15/32/7 12/27/7
f 17/33/8 18/34/8 16/35/8
f 16/35/8 18/34/8 19/36/8
f 19/37/6 20/38/6 16/39/6
f 16/39/6 20/38/6 21/40/6
f 18/41/5 22/42/5 19/43/5
f 19/43/5 22/42/5 20/44/5
f 20/44/5 22/42/5 26/45/5
f 26/45/5 22/42/5 23/46/5
f 26/45/5 23/46/5 25/47/5
f 25/47/5 23/46/5 24/48/5
f 4/49/9 27/50/9 5/51/9
f 5/51/9 27/50/9 11/52/9
f 14/53/5 28/54/5 15/55/5
f 15/55/5 28/54/5 29/56/5
f 23/57/2 22/58/2 31/59/2
f 31/59/2 22/58/2 30/60/2
f 30/61/5 32/62/5 31/63/5
f 31/63/5 32/62/5 33/64/5
f 31/63/5 33/64/5 35/65/5
f 35/65/5 33/64/5 34/66/5
f 36/67/8 39/68/8 32/69/8
f 32/69/8 39/68/8 29/70/8
f 32/69/8 29/70/8 33/71/8
f 33/71/8 29/70/8 28/72/8
f 33/71/8 28/72/8 38/73/8
f 36/67/8 37/74/8 39/68/8
f 39/68/8 37/74/8 38/73/8
f 38/73/8 37/74/8 33/71/8
f 40/75/10 41/76/10 34/77/10
f 34/77/10 41/76/10 35/78/10
f 42/79/7 43/80/7 44/81/7
f 44/81/7 43/80/7 41/82/7
f 41/82/7 43/80/7 35/83/7
f 35/83/7 43/80/7 24/84/7
f 35/83/7 24/84/7 31/85/7
f 31/85/7 24/84/7 23/86/7
f 45/87/2 42/88/2 46/89/2
f 46/89/2 42/88/2 44/90/2
f 45/91/6 46/92/6 17/93/6
f 17/93/6 46/92/6 36/94/6
f 17/93/6 36/94/6 32/95/6
f 17/93/6 32/95/6 18/96/6
f 18/96/6 32/95/6 30/97/6
f 18/96/6 30/97/6 22/98/6
f 46/99/9 44/100/9 36/101/9
f 36/101/9 44/100/9 37/102/9
f 37/102/9 44/100/9 41/103/9
f 37/102/9 41/103/9 40/104/9
f 17/105/9 16/106/9 45/107/9
f 45/107/9 16/106/9 21/108/9
f 45/107/9 21/108/9 47/109/9
f 45/107/9 47/109/9 42/110/9
f 42/110/9 47/109/9 48/111/9
f 42/110/9 48/111/9 43/112/9
f 12/113/9 39/114/9 13/115/9
f 13/115/9 39/114/9 38/116/9
f 15/117/6 29/118/6 12/119/6
f 12/119/6 29/118/6 39/120/6
f 11/121/8 27/122/8 9/123/8
f 9/123/8 27/122/8 10/124/8
f 3/125/10 10/126/10 4/127/10
f 4/127/10 10/126/10 27/128/10
f 28/129/10 14/130/10 38/131/10
f 38/131/10 14/130/10 13/132/10
f 37/133/11 40/134/11 33/135/11
f 33/135/11 40/134/11 34/136/11
f 43/137/10 48/138/10 24/139/10
f 24/139/10 48/138/10 25/140/10
f 26/141/7 25/142/7 47/143/7
f 47/143/7 25/142/7 48/144/7
f 20/145/2 26/146/2 21/147/2
f 21/147/2 26/146/2 47/148/2
