# Blender 3.6.16
# www.blender.org
mtllib EFFERFE.mtl
o 게시판_v1
v 32.761971 -3.243454 0.000000
v 32.761971 -2.743454 0.000000
v 32.761971 -2.743454 0.150000
v 32.761971 -3.243454 0.150000
v -15.238031 -3.243454 0.000000
v -5.638031 -3.243454 0.000000
v 3.961969 -3.243454 0.000000
v 13.561969 -3.243454 0.000000
v 23.161968 -3.243454 0.000000
v 23.161968 -3.243454 0.150000
v 13.561969 -3.243454 0.150000
v 3.961969 -3.243454 0.150000
v -5.638031 -3.243454 0.150000
v -15.238031 -3.243454 0.150000
v -15.238031 -2.743454 0.000000
v -15.238031 -2.743454 0.150000
v 23.161968 -2.743454 0.000000
v 13.561969 -2.743454 0.000000
v 3.961969 -2.743454 0.000000
v -5.638031 -2.743454 0.000000
v -5.638031 -2.743454 0.150000
v 3.961969 -2.743454 0.150000
v 13.561969 -2.743454 0.150000
v 23.161968 -2.743454 0.150000
v -15.238031 -2.743454 0.000000
v -7.248031 -2.743454 0.000000
v 0.741969 -2.743454 0.000000
v 8.731969 -2.743454 0.000000
v 8.731969 -2.743454 0.100000
v 0.741969 -2.743454 0.100000
v -7.248031 -2.743454 0.100000
v -15.238031 -2.743454 0.100000
v -15.238031 8.856546 -0.000001
v -15.238031 3.056546 -0.000000
v -15.238031 3.056546 0.100000
v -15.238031 8.856546 0.099999
v 8.731969 8.856546 -0.000001
v 0.741969 8.856546 -0.000001
v -7.248031 8.856546 -0.000001
v -7.248031 8.856546 0.099999
v 0.741969 8.856546 0.099999
v 8.731969 8.856546 0.099999
v 8.731969 3.056546 -0.000000
v 8.731969 3.056546 0.100000
v 8.791969 8.856546 -0.000001
v 8.791969 3.056546 -0.000000
v 8.791969 -2.743454 0.000000
v 8.791969 -2.743454 0.100000
v 8.791969 3.056546 0.100000
v 8.791969 8.856546 0.099999
v 16.781969 -2.743454 0.100000
v 24.771969 -2.743454 0.100000
v 32.761971 -2.743454 0.100000
v 32.761971 3.056546 0.100000
v 32.761971 8.856546 0.099999
v 24.771969 8.856546 0.099999
v 16.781969 8.856546 0.099999
v 16.781969 -2.743454 0.000000
v 24.771969 -2.743454 0.000000
v 32.761971 -2.743454 0.000000
v 32.761971 8.856546 -0.000001
v 24.771969 8.856546 -0.000001
v 16.781969 8.856546 -0.000001
v 32.761971 3.056546 -0.000000
v -15.238031 10.356546 -0.000001
v -15.238031 8.856546 -0.000001
v -15.238031 8.856546 0.149999
v -15.238031 10.356546 0.149999
v 32.761971 10.356546 -0.000001
v 23.161968 10.356546 -0.000001
v 13.561969 10.356546 -0.000001
v 3.961969 10.356546 -0.000001
v -5.638031 10.356546 -0.000001
v -5.638031 10.356546 0.149999
v 3.961969 10.356546 0.149999
v 13.561969 10.356546 0.149999
v 23.161968 10.356546 0.149999
v 32.761971 10.356546 0.149999
v 32.761971 8.856546 -0.000001
v 32.761971 8.856546 0.149999
v -5.638031 8.856546 -0.000001
v 3.961969 8.856546 -0.000001
v 13.561969 8.856546 -0.000001
v 23.161968 8.856546 -0.000001
v 23.161968 8.856546 0.149999
v 13.561969 8.856546 0.149999
v 3.961969 8.856546 0.149999
v -5.638031 8.856546 0.149999
vn 1.0000 -0.0000 -0.0000
vn -0.0000 -1.0000 -0.0000
vn -1.0000 -0.0000 -0.0000
vn -0.0000 1.0000 -0.0000
vn -0.0000 -0.0000 1.0000
vn -0.0000 -0.0000 -1.0000
vt 0.359414 0.510271
vt 0.359414 0.499859
vt 0.362538 0.510271
vt 0.362538 0.499859
vt 0.085471 0.999758
vt 0.085471 0.799855
vt 0.088594 0.999758
vt 0.088594 0.799855
vt 0.085471 0.599952
vt 0.088594 0.599952
vt 0.085471 0.400048
vt 0.088594 0.400048
vt 0.085471 0.200145
vt 0.088594 0.200145
vt 0.085471 0.000242
vt 0.088594 0.000242
vt 0.363022 0.510271
vt 0.363022 0.499859
vt 0.366145 0.510271
vt 0.366145 0.499859
vt 0.092686 0.999758
vt 0.092686 0.799855
vt 0.095809 0.999758
vt 0.095809 0.799855
vt 0.092686 0.599952
vt 0.095809 0.599952
vt 0.092686 0.400048
vt 0.095809 0.400048
vt 0.092686 0.200145
vt 0.095809 0.200145
vt 0.092686 0.000242
vt 0.095809 0.000242
vt 0.074091 0.000242
vt 0.074091 0.200145
vt 0.063680 0.000242
vt 0.063680 0.200145
vt 0.074091 0.400048
vt 0.063680 0.400048
vt 0.074091 0.599952
vt 0.063680 0.599952
vt 0.074091 0.799855
vt 0.063680 0.799855
vt 0.074091 0.999758
vt 0.063680 0.999758
vt 0.074575 0.999758
vt 0.074575 0.799855
vt 0.084987 0.999758
vt 0.084987 0.799855
vt 0.074575 0.599952
vt 0.084987 0.599952
vt 0.074575 0.400048
vt 0.084987 0.400048
vt 0.074575 0.200145
vt 0.084987 0.200145
vt 0.074575 0.000242
vt 0.084987 0.000242
vt 0.826002 0.499375
vt 0.826002 0.332998
vt 0.828084 0.499375
vt 0.828084 0.332998
vt 0.826002 0.166620
vt 0.828084 0.166620
vt 0.826002 0.000242
vt 0.828084 0.000242
vt 0.341934 0.741409
vt 0.341934 0.620634
vt 0.344017 0.741409
vt 0.344017 0.620634
vt 0.341934 0.499859
vt 0.344017 0.499859
vt 0.828568 0.499375
vt 0.828568 0.332998
vt 0.830650 0.499375
vt 0.830650 0.332998
vt 0.828568 0.166620
vt 0.830650 0.166620
vt 0.828568 0.000242
vt 0.830650 0.000242
vt 0.344501 0.741409
vt 0.344501 0.620634
vt 0.346583 0.741409
vt 0.346583 0.620634
vt 0.344501 0.499859
vt 0.346583 0.499859
vt 0.099901 0.000242
vt 0.220676 0.000242
vt 0.099901 0.166620
vt 0.341450 0.166620
vt 0.341450 0.332998
vt 0.341450 0.000242
vt 0.341450 0.499375
vt 0.220676 0.499375
vt 0.099901 0.332998
vt 0.099901 0.499375
vt 0.583484 0.499375
vt 0.462709 0.499375
vt 0.583484 0.332998
vt 0.341934 0.332998
vt 0.341934 0.166620
vt 0.341934 0.499375
vt 0.341934 0.000242
vt 0.462709 0.000242
vt 0.583484 0.166620
vt 0.583484 0.000242
vt 0.351715 0.741409
vt 0.349633 0.741409
vt 0.351715 0.620634
vt 0.349633 0.620634
vt 0.351715 0.499859
vt 0.349633 0.499859
vt 0.825518 0.499375
vt 0.704743 0.499375
vt 0.825518 0.332998
vt 0.583968 0.332998
vt 0.583968 0.166620
vt 0.583968 0.499375
vt 0.583968 0.000242
vt 0.704743 0.000242
vt 0.825518 0.166620
vt 0.825518 0.000242
vt 0.831134 0.499375
vt 0.831134 0.332998
vt 0.833217 0.499375
vt 0.833217 0.332998
vt 0.831134 0.166620
vt 0.833217 0.166620
vt 0.831134 0.000242
vt 0.833217 0.000242
vt 0.835783 0.000242
vt 0.835783 0.166620
vt 0.833701 0.000242
vt 0.833701 0.166620
vt 0.835783 0.332998
vt 0.833701 0.332998
vt 0.835783 0.499375
vt 0.833701 0.499375
vt 0.347067 0.741409
vt 0.347067 0.620634
vt 0.349149 0.741409
vt 0.349149 0.620634
vt 0.347067 0.499859
vt 0.349149 0.499859
vt 0.099901 0.499859
vt 0.220676 0.499859
vt 0.099901 0.666237
vt 0.341450 0.666237
vt 0.341450 0.832615
vt 0.341450 0.499859
vt 0.341450 0.998993
vt 0.220676 0.998993
vt 0.099901 0.832615
vt 0.099901 0.998993
vt 0.352199 0.531094
vt 0.352199 0.499859
vt 0.355323 0.531094
vt 0.355323 0.499859
vt 0.089078 0.999758
vt 0.089078 0.799855
vt 0.092202 0.999758
vt 0.092202 0.799855
vt 0.089078 0.599952
vt 0.092202 0.599952
vt 0.089078 0.400048
vt 0.092202 0.400048
vt 0.089078 0.200145
vt 0.092202 0.200145
vt 0.089078 0.000242
vt 0.092202 0.000242
vt 0.355807 0.531094
vt 0.355807 0.499859
vt 0.358930 0.531094
vt 0.358930 0.499859
vt 0.096293 0.999758
vt 0.096293 0.799855
vt 0.099417 0.999758
vt 0.099417 0.799855
vt 0.096293 0.599952
vt 0.099417 0.599952
vt 0.096293 0.400048
vt 0.099417 0.400048
vt 0.096293 0.200145
vt 0.099417 0.200145
vt 0.096293 0.000242
vt 0.099417 0.000242
vt 0.000242 0.999758
vt 0.000242 0.799855
vt 0.031477 0.999758
vt 0.031477 0.799855
vt 0.000242 0.599952
vt 0.031477 0.599952
vt 0.000242 0.400048
vt 0.031477 0.400048
vt 0.000242 0.200145
vt 0.031477 0.200145
vt 0.000242 0.000242
vt 0.031477 0.000242
vt 0.063196 0.000242
vt 0.063196 0.200145
vt 0.031961 0.000242
vt 0.031961 0.200145
vt 0.063196 0.400048
vt 0.031961 0.400048
vt 0.063196 0.599952
vt 0.031961 0.599952
vt 0.063196 0.799855
vt 0.031961 0.799855
vt 0.063196 0.999758
vt 0.031961 0.999758
s 0
usemtl PEEK
f 1/1/1 2/2/1 4/3/1
f 4/3/1 2/2/1 3/4/1
f 5/5/2 6/6/2 14/7/2
f 14/7/2 6/6/2 13/8/2
f 13/8/2 6/6/2 7/9/2
f 13/8/2 7/9/2 12/10/2
f 12/10/2 7/9/2 8/11/2
f 12/10/2 8/11/2 11/12/2
f 11/12/2 8/11/2 9/13/2
f 11/12/2 9/13/2 10/14/2
f 10/14/2 9/13/2 1/15/2
f 10/14/2 1/15/2 4/16/2
f 15/17/3 5/18/3 16/19/3
f 16/19/3 5/18/3 14/20/3
f 2/21/4 17/22/4 3/23/4
f 3/23/4 17/22/4 24/24/4
f 24/24/4 17/22/4 18/25/4
f 24/24/4 18/25/4 23/26/4
f 23/26/4 18/25/4 19/27/4
f 23/26/4 19/27/4 22/28/4
f 22/28/4 19/27/4 20/29/4
f 22/28/4 20/29/4 21/30/4
f 21/30/4 20/29/4 15/31/4
f 21/30/4 15/31/4 16/32/4
f 3/33/5 24/34/5 4/35/5
f 4/35/5 24/34/5 10/36/5
f 10/36/5 24/34/5 23/37/5
f 10/36/5 23/37/5 11/38/5
f 11/38/5 23/37/5 22/39/5
f 11/38/5 22/39/5 12/40/5
f 12/40/5 22/39/5 21/41/5
f 12/40/5 21/41/5 13/42/5
f 13/42/5 21/41/5 16/43/5
f 13/42/5 16/43/5 14/44/5
f 1/45/6 9/46/6 2/47/6
f 2/47/6 9/46/6 17/48/6
f 17/48/6 9/46/6 8/49/6
f 17/48/6 8/49/6 18/50/6
f 18/50/6 8/49/6 7/51/6
f 18/50/6 7/51/6 19/52/6
f 19/52/6 7/51/6 6/53/6
f 19/52/6 6/53/6 20/54/6
f 20/54/6 6/53/6 5/55/6
f 20/54/6 5/55/6 15/56/6
f 65/153/3 66/154/3 68/155/3
f 68/155/3 66/154/3 67/156/3
f 69/157/4 70/158/4 78/159/4
f 78/159/4 70/158/4 77/160/4
f 77/160/4 70/158/4 71/161/4
f 77/160/4 71/161/4 76/162/4
f 76/162/4 71/161/4 72/163/4
f 76/162/4 72/163/4 75/164/4
f 75/164/4 72/163/4 73/165/4
f 75/164/4 73/165/4 74/166/4
f 74/166/4 73/165/4 65/167/4
f 74/166/4 65/167/4 68/168/4
f 79/169/1 69/170/1 80/171/1
f 80/171/1 69/170/1 78/172/1
f 66/173/2 81/174/2 67/175/2
f 67/175/2 81/174/2 88/176/2
f 88/176/2 81/174/2 82/177/2
f 88/176/2 82/177/2 87/178/2
f 87/178/2 82/177/2 83/179/2
f 87/178/2 83/179/2 86/180/2
f 86/180/2 83/179/2 84/181/2
f 86/180/2 84/181/2 85/182/2
f 85/182/2 84/181/2 79/183/2
f 85/182/2 79/183/2 80/184/2
f 67/185/5 88/186/5 68/187/5
f 68/187/5 88/186/5 74/188/5
f 74/188/5 88/186/5 87/189/5
f 74/188/5 87/189/5 75/190/5
f 75/190/5 87/189/5 86/191/5
f 75/190/5 86/191/5 76/192/5
f 76/192/5 86/191/5 85/193/5
f 76/192/5 85/193/5 77/194/5
f 77/194/5 85/193/5 80/195/5
f 77/194/5 80/195/5 78/196/5
f 65/197/6 73/198/6 66/199/6
f 66/199/6 73/198/6 81/200/6
f 81/200/6 73/198/6 72/201/6
f 81/200/6 72/201/6 82/202/6
f 82/202/6 72/201/6 71/203/6
f 82/202/6 71/203/6 83/204/6
f 83/204/6 71/203/6 70/205/6
f 83/204/6 70/205/6 84/206/6
f 84/206/6 70/205/6 69/207/6
f 84/206/6 69/207/6 79/208/6
usemtl 알루미늄_-_비드_블라스티드
f 25/57/2 26/58/2 32/59/2
f 32/59/2 26/58/2 31/60/2
f 31/60/2 26/58/2 27/61/2
f 31/60/2 27/61/2 30/62/2
f 30/62/2 27/61/2 28/63/2
f 30/62/2 28/63/2 29/64/2
f 33/65/3 34/66/3 36/67/3
f 36/67/3 34/66/3 35/68/3
f 35/68/3 34/66/3 25/69/3
f 35/68/3 25/69/3 32/70/3
f 37/71/4 38/72/4 42/73/4
f 42/73/4 38/72/4 41/74/4
f 41/74/4 38/72/4 39/75/4
f 41/74/4 39/75/4 40/76/4
f 40/76/4 39/75/4 33/77/4
f 40/76/4 33/77/4 36/78/4
f 28/79/1 43/80/1 29/81/1
f 29/81/1 43/80/1 44/82/1
f 44/82/1 43/80/1 37/83/1
f 44/82/1 37/83/1 42/84/1
f 29/85/5 44/86/5 30/87/5
f 30/87/5 44/86/5 41/88/5
f 30/87/5 41/88/5 40/89/5
f 44/86/5 42/90/5 41/88/5
f 36/91/5 35/92/5 40/89/5
f 40/89/5 35/92/5 31/93/5
f 40/89/5 31/93/5 30/87/5
f 35/92/5 32/94/5 31/93/5
f 37/95/6 43/96/6 38/97/6
f 38/97/6 43/96/6 27/98/6
f 38/97/6 27/98/6 26/99/6
f 43/96/6 28/100/6 27/98/6
f 25/101/6 34/102/6 26/99/6
f 26/99/6 34/102/6 39/103/6
f 26/99/6 39/103/6 38/97/6
f 34/102/6 33/104/6 39/103/6
f 50/111/5 49/112/5 57/113/5
f 57/113/5 49/112/5 51/114/5
f 57/113/5 51/114/5 52/115/5
f 49/112/5 48/116/5 51/114/5
f 53/117/5 54/118/5 52/115/5
f 52/115/5 54/118/5 56/119/5
f 52/115/5 56/119/5 57/113/5
f 54/118/5 55/120/5 56/119/5
usemtl 강철_-_새틴
f 50/105/3 45/106/3 49/107/3
f 49/107/3 45/106/3 46/108/3
f 49/107/3 46/108/3 48/109/3
f 48/109/3 46/108/3 47/110/3
f 47/121/2 58/122/2 48/123/2
f 48/123/2 58/122/2 51/124/2
f 51/124/2 58/122/2 59/125/2
f 51/124/2 59/125/2 52/126/2
f 52/126/2 59/125/2 60/127/2
f 52/126/2 60/127/2 53/128/2
f 50/129/4 57/130/4 45/131/4
f 45/131/4 57/130/4 63/132/4
f 63/132/4 57/130/4 56/133/4
f 63/132/4 56/133/4 62/134/4
f 62/134/4 56/133/4 55/135/4
f 62/134/4 55/135/4 61/136/4
f 60/137/1 64/138/1 53/139/1
f 53/139/1 64/138/1 54/140/1
f 54/140/1 64/138/1 61/141/1
f 54/140/1 61/141/1 55/142/1
f 47/143/6 46/144/6 58/145/6
f 58/145/6 46/144/6 63/146/6
f 58/145/6 63/146/6 62/147/6
f 46/144/6 45/148/6 63/146/6
f 61/149/6 64/150/6 62/147/6
f 62/147/6 64/150/6 59/151/6
f 62/147/6 59/151/6 58/145/6
f 64/150/6 60/152/6 59/151/6
