# Blender 3.6.16
# www.blender.org
mtllib 튜토.mtl
o 나가
v -7.223247 0.099999 -8.696435
v -7.223247 0.100000 -1.454151
v -7.223247 0.100000 5.788133
v 2.195045 0.100000 5.788133
v 11.613337 0.100000 5.788133
v 11.613337 0.100000 -1.454151
v 11.613337 0.099999 -8.696435
v 2.195045 0.099999 -8.696435
v 2.195045 0.100000 -1.454151
v -7.223247 0.000000 5.788133
v 2.195045 0.000000 5.788133
v 11.613337 0.000000 5.788133
v -7.223247 -0.000001 -8.696435
v -7.223247 -0.000000 -1.454151
v 11.613337 -0.000001 -8.696435
v 2.195045 -0.000001 -8.696435
v 11.613337 -0.000000 -1.454151
v 2.195045 -0.000000 -1.454151
vn -0.0000 1.0000 -0.0000
vn -0.0000 -0.0000 1.0000
vn -1.0000 -0.0000 -0.0000
vn -0.0000 -0.0000 -1.0000
vn 1.0000 -0.0000 -0.0000
vn -0.0000 -1.0000 -0.0000
vt 0.494361 0.321493
vt 0.494361 0.642856
vt 0.247245 0.321493
vt 0.247245 0.642856
vt 0.000130 0.321493
vt 0.000130 0.642856
vt 0.000130 0.000130
vt 0.247245 0.000130
vt 0.494361 0.000130
vt 0.992524 0.000130
vt 0.992524 0.321493
vt 0.989112 0.000130
vt 0.989112 0.321493
vt 0.992524 0.642856
vt 0.989112 0.642856
vt 0.999870 0.000130
vt 0.999870 0.247245
vt 0.996458 0.000130
vt 0.996458 0.247245
vt 0.999870 0.494361
vt 0.996458 0.494361
vt 0.996197 0.000130
vt 0.996197 0.321493
vt 0.992785 0.000130
vt 0.992785 0.321493
vt 0.996197 0.642856
vt 0.992785 0.642856
vt 0.999870 0.494621
vt 0.999870 0.741736
vt 0.996458 0.494621
vt 0.996458 0.741736
vt 0.999870 0.988851
vt 0.996458 0.988851
vt 0.494621 0.321493
vt 0.494621 0.000130
vt 0.741736 0.321493
vt 0.741736 0.000130
vt 0.988851 0.321493
vt 0.988851 0.000130
vt 0.988851 0.642856
vt 0.741736 0.642856
vt 0.494621 0.642856
s 0
usemtl 강철_-_새틴
f 8/1/1 1/2/1 9/3/1
f 9/3/1 1/2/1 2/4/1
f 9/3/1 2/4/1 4/5/1
f 4/5/1 2/4/1 3/6/1
f 4/5/1 5/7/1 9/3/1
f 9/3/1 5/7/1 6/8/1
f 9/3/1 6/8/1 8/1/1
f 8/1/1 6/8/1 7/9/1
f 5/10/2 4/11/2 12/12/2
f 12/12/2 4/11/2 11/13/2
f 11/13/2 4/11/2 3/14/2
f 11/13/2 3/14/2 10/15/2
f 3/16/3 2/17/3 10/18/3
f 10/18/3 2/17/3 14/19/3
f 14/19/3 2/17/3 1/20/3
f 14/19/3 1/20/3 13/21/3
f 1/22/4 8/23/4 13/24/4
f 13/24/4 8/23/4 16/25/4
f 16/25/4 8/23/4 7/26/4
f 16/25/4 7/26/4 15/27/4
f 7/28/5 6/29/5 15/30/5
f 15/30/5 6/29/5 17/31/5
f 17/31/5 6/29/5 5/32/5
f 17/31/5 5/32/5 12/33/5
f 11/34/6 10/35/6 18/36/6
f 18/36/6 10/35/6 14/37/6
f 18/36/6 14/37/6 16/38/6
f 16/38/6 14/37/6 13/39/6
f 16/38/6 15/40/6 18/36/6
f 18/36/6 15/40/6 17/41/6
f 18/36/6 17/41/6 11/34/6
f 11/34/6 17/41/6 12/42/6
