# WaveFront *.obj file (generated by Autodesk ATF)

mtllib 화살표.mtl

g 본체1

v 2.000000 6.000000 0.000000
v 2.000000 3.000000 0.000000
v 2.000000 3.000000 0.500000
v 2.000000 6.000000 0.500000
v 7.306413 0.750000 0.000000
v 7.306413 0.750000 0.500000
v 2.000000 -4.500000 0.000000
v 2.000000 -4.500000 0.500000
v 2.000000 -1.500000 0.000000
v 2.000000 -1.500000 0.500000
v -6.500000 -1.500000 0.000000
v -6.500000 -1.500000 0.500000
v -6.500000 3.000000 0.000000
v -6.500000 3.000000 0.500000
vt -0.000000 0.000000 0.000000
vt 3.000000 0.000000 0.000000
vt -0.000000 0.500000 0.000000
vt 3.000000 0.500000 0.000000
vt 0.000000 0.000000 0.000000
vt 7.464618 0.000000 0.000000
vt 0.000000 0.500000 0.000000
vt 7.464618 0.500000 0.000000
vt 0.000000 0.000000 0.000000
vt 7.464618 0.000000 0.000000
vt 0.000000 0.500000 0.000000
vt 7.464618 0.500000 0.000000
vt 0.000000 0.000000 0.000000
vt 3.000000 0.000000 0.000000
vt 0.000000 0.500000 0.000000
vt 3.000000 0.500000 0.000000
vt 0.000000 0.000000 0.000000
vt 8.500000 0.000000 0.000000
vt 0.000000 0.500000 0.000000
vt 8.500000 0.500000 0.000000
vt 0.000000 0.000000 0.000000
vt 4.500000 0.000000 0.000000
vt 0.000000 0.500000 0.000000
vt 4.500000 0.500000 0.000000
vt 0.000000 0.000000 0.000000
vt 8.500000 0.000000 0.000000
vt 0.000000 0.500000 0.000000
vt 8.500000 0.500000 0.000000
vt -6.903206 2.250000 0.000000
vt 1.596794 -2.250000 0.000000
vt 1.596794 2.250000 0.000000
vt 6.903206 0.000000 0.000000
vt 1.596794 5.250000 0.000000
vt -6.903206 -2.250000 0.000000
vt 1.596794 -5.250000 0.000000
vt 6.903206 2.250000 0.000000
vt -1.596794 2.250000 0.000000
vt 6.903206 -2.250000 0.000000
vt -1.596794 -2.250000 0.000000
vt -6.903206 0.000000 0.000000
vt -1.596794 -5.250000 0.000000
vt -1.596794 5.250000 0.000000
vn -1.000000 0.000000 0.000000
vn -1.000000 0.000000 0.000000
vn -1.000000 0.000000 0.000000
vn -1.000000 0.000000 0.000000
vn 0.703318 0.710875 -0.000000
vn 0.703318 0.710875 -0.000000
vn 0.703318 0.710875 -0.000000
vn 0.703318 0.710875 -0.000000
vn 0.703318 -0.710875 0.000000
vn 0.703318 -0.710875 0.000000
vn 0.703318 -0.710875 0.000000
vn 0.703318 -0.710875 0.000000
vn -1.000000 0.000000 0.000000
vn -1.000000 0.000000 0.000000
vn -1.000000 0.000000 0.000000
vn -1.000000 0.000000 0.000000
vn 0.000000 -1.000000 0.000000
vn 0.000000 -1.000000 0.000000
vn 0.000000 -1.000000 0.000000
vn 0.000000 -1.000000 0.000000
vn -1.000000 0.000000 0.000000
vn -1.000000 0.000000 0.000000
vn -1.000000 0.000000 0.000000
vn -1.000000 0.000000 0.000000
vn 0.000000 1.000000 -0.000000
vn 0.000000 1.000000 -0.000000
vn 0.000000 1.000000 -0.000000
vn 0.000000 1.000000 -0.000000
vn 0.000000 0.000000 1.000000
vn 0.000000 0.000000 1.000000
vn 0.000000 0.000000 1.000000
vn 0.000000 0.000000 1.000000
vn 0.000000 0.000000 1.000000
vn 0.000000 0.000000 1.000000
vn 0.000000 0.000000 1.000000
vn -0.000000 -0.000000 -1.000000
vn -0.000000 -0.000000 -1.000000
vn -0.000000 -0.000000 -1.000000
vn -0.000000 -0.000000 -1.000000
vn -0.000000 -0.000000 -1.000000
vn -0.000000 -0.000000 -1.000000
vn -0.000000 -0.000000 -1.000000
usemtl 강철_-_새틴
f 1/1/1 2/2/2 4/3/3
f 4/3/3 2/2/2 3/4/4
f 5/5/5 1/6/6 6/7/7
f 6/7/7 1/6/6 4/8/8
f 7/9/9 5/10/10 8/11/11
f 8/11/11 5/10/10 6/12/12
f 9/13/13 7/14/14 10/15/15
f 10/15/15 7/14/14 8/16/16
f 11/17/17 9/18/18 12/19/19
f 12/19/19 9/18/18 10/20/20
f 13/21/21 11/22/22 14/23/23
f 14/23/23 11/22/22 12/24/24
f 2/25/25 13/26/26 3/27/27
f 3/27/27 13/26/26 14/28/28
f 14/29/29 10/30/30 3/31/31
f 3/31/31 10/30/30 6/32/32
f 3/31/31 6/32/32 4/33/33
f 14/29/29 12/34/34 10/30/30
f 10/30/30 8/35/35 6/32/32
f 13/36/36 2/37/37 11/38/38
f 11/38/38 2/37/37 9/39/39
f 9/39/39 2/37/37 5/40/40
f 9/39/39 5/40/40 7/41/41
f 2/37/37 1/42/42 5/40/40
# 14 vertices
# 42 texture params
# 42 normals
# 24 facets

# 1 groups
